<svg version="1.2" xmlns="http://www.w3.org/2000/svg" viewBox="0 0 406 457" width="406" height="457"><style>.a{fill:#101012}.b{fill:#fafaf5}.c{fill:#efede7}.d{fill:#fafbf6}.e{fill:#141418}.f{fill:#131518}.g{fill:#121215}.h{fill:#121114}.i{fill:#111112}.j{fill:#121112}.k{fill:#0f0e0d}</style><path fill-rule="evenodd" class="a" d="m182 271c0 0 1.7 7.7 9.7 18.7 5.8 5.3 13.5 11.4 22.5 17.8 9.1 6.4 18.4 13.3 26.6 20.3 6.3 7.2 10.1 14.7 10.7 22-2.7 7.7-8.9 15.2-17.2 22-26.5 14.6-52.3 25.2-52.3 25.2 0 0-11.2 0-28 0-8.4 0-18.1 0-28.6 0-10.5 0-21.7 0-32.9 0-11.2 0-22.4 0-32.9 0-10.5 0-20.2 0-28.6 0-16.8 0-28 0-28 0 0 0 0-7.9 0-19.7 0-5.9 0-12.8 0-20.2 0-7.4 0-15.2 0-23.1 0-7.9 0-15.8 0-23.1 0-7.4 0-14.3 0-20.2 0-11.8 0-19.7 0-19.7 0 0 11.2 0 28 0 8.4 0 18.1 0 28.6 0 10.5 0 21.7 0 32.9 0 11.2 0 22.4 0 32.9 0 10.5 0 20.2 0 28.6 0 16.8 0 28 0 28 0z"/><path fill-rule="evenodd" class="a" d="m384.4 203c0 0 2.5 7.4 4.7 17.9 0.5 5 0.6 10.7 0.2 16.5-0.9 5.7-2.3 11.7-4.2 17.6-2.4 5.9-5.3 11.7-8.5 17.1-3.3 5.4-6.8 10.4-10.1 14.7-7.4 8.6-12.6 14.4-12.6 14.4 0 0-2.5 0.4-7.2 1.1-4.9 0.6-12.1 1.3-21.2 2-4.6 0.4-9.7 0.7-15.2 1.1-5.6 0.4-11.5 0.8-17.6 1.3-6.2 0.4-12.7 0.9-19.3 1.4-6.6 0.5-13.4 1-20.2 1.6-6.8 0.5-13.6 1.1-20.4 1.6-6.8 0.5-13.5 1.1-20 1.5-6.6 0.5-13 1-19.1 1.3-6.1 0.4-12 0.7-17.4 1-22.1 0.7-37.3 0.9-37.3 0.9 0 0 0-7.1 0-17.7 0-10.6 0-24.7 0-38.8 0-14.1 0-28.3 0-38.8 0-10.6 0-17.7 0-17.7 0 0 15.3 0 38.4 0 5.7 0 11.9 0 18.5 0 6.6 0 13.6 0 20.8 0 7.2 0 14.6 0 22.1 0 7.6 0 15.3 0 22.9 0 7.7 0 15.4 0 22.9 0 7.6 0 15 0 22.2 0 7.2 0 14.1 0 20.7 0 6.6 0 12.8 0 18.6 0 23 0 38.3 0 38.3 0z"/><path class="b" d="m142 30q6 3.5 12 7c22.3 13 22.3 13 31.9 18.7 5.2 3.2 10.5 6.2 15.9 9.2 7.7 4.2 15.3 8.8 22.8 13.4 10.5 6.5 21.3 12.6 32 18.8 10.5 6 21 12.1 31.1 18.6 5.4 3.3 10.8 6.3 16.3 9.3 3.5 2.1 3.5 2.1 7.1 4.2 5.5 3.4 11 6.6 16.7 9.7 7.8 4.3 15.3 8.8 22.9 13.4 4 2.5 8 4.9 12 7.3 39.8 24.3 66.7 131.3 12.3 120.4-6.3-5.1-5.7-5.6-1.3-11.8 5.6-8.8 8.8-18.1 11.3-28.2q0.5-1 1-2c6.8-43.9-51.5-15.9-64 4-0.2 8.7-0.2 8.7 1 16-39.8 5.8-39.8 5.8-36-19-7.6-15.2-80-36.3-80-25q-2 1-4 2.1c-9.5 5.5-14.3 12.8-20 21.9q-3.2 4.5-6.4 8.9c-5.3 7.2-10.1 14.5-14.6 22.1q-1.5 2.5-3 5c-4.1 14.2 1 21.1 11 31-1.6 4.8-5.7 6.1-9.9 8.7-5.4 3.4-10.7 6.7-15.9 10.4-12 8.3-12 8.3-10.2-4.1 1.1-22-4.3-28.6-24-38-2.2-1.1-4.3-2.1-6.6-3.2-22.2-9.7-35.8-9.3-42.4 16.2-0.7 2-1.3 4-2 6-1 18.4 4.1 28 14 43 7 11.7 4.9 12.4-8.3 12.3-2.3 0-4.5 0-6.9 0-26.8-1.2-26.8-1.2-21.7-18.3 5.6-23.2-2.4-34.3-20.1-49-1.7-1.7-3.3-3.3-5-5-5.4-4.1-5.4-4.1-10-5-0.4-6.7-0.5-13.2-0.5-19.9 0-2.1 0-4.2 0-6.4q0-10.5 0-21 0-7.2 0-14.5 0-15.3 0-30.6 0.1-19.6 0-39.1 0-15.1 0.1-30.1 0-7.3 0-14.5 0-10.1 0-20.2 0-3 0-6c0-11.8 3.8-57.7 21.4-57.7q0.5-1.5 1-3c43-31.7 78.1-10.6 119 14z"/><path class="c" d="m336 274c2.6 0.9 2.6 0.9 5.2 1.9 9.7 3.5 18.4 7.1 26.8 13.1 3.1 2.1 3.1 2.1 6.3 4.3 2.2 1.6 4.4 3.1 6.7 4.7 2.4 1.7 4.9 3.4 7.4 5.1 26.9 19.9 23 58.9-15.4 58.9 1-5 1-5 3-8 0-58.1-96.8-9.5-118 4q-6.8 4.1-13.6 8.3c-4.2 2.6-8.4 5.3-12.5 7.9-37.1 22.4-71.9 14.5-105.9-10.2-1.8-1.3-3.5-2.5-5.4-3.8-8.8-7.7 3.9-10.8 10.4-14.2q5-3.5 10-7c3.4-1.9 3.4-1.9 6.9-3.9 6.9-3.8 6.9-3.8 12.3-7.9 6.5-4.7 13.3-8.6 20.3-12.6 5.3-3 10.4-6.3 15.5-9.6 8.4-5.3 17.1-9.6 26-14 2.8-1.4 2.8-1.4 5.6-2.8 10.7-5.3 20.7-9.5 32.4-12.2 2.3-1 4.6-2 7-3 22.2-5.8 47.5-7.9 69 1z"/><path class="d" d="m10.2 353.1c17.2 9.8 32.4 14.3 52.1 14.2 3 0 6 0 9.1 0 7.4 0.1 7.4 0.1 13.6-2.3 3-0.7 5.9-1.3 9-2q1.5-0.5 3-1c11.3 0 11.1 0.3 18 8q4.9 3.6 10 7c3.5 2.3 3.5 2.3 7.1 4.7 14.4 8.9 31.1 15.9 47.9 18.3 0 6.8-27.6 18.5-33.4 21.8-4.8 2.7-9.5 5.6-14.1 8.5-7.3 4.6-14.8 8.7-22.5 12.7-2.5 1.4-4.9 2.8-7.4 4.3-14.8 8.3-32.1 12.2-48.6 6.7-3-0.7-5.9-1.3-9-2-20.7-8.7-32.5-24.6-40-45q-0.5-0.5-1-1c-0.3-2.3-0.7-4.6-1-7q-0.5-0.5-1-1c-1.4-9.5-1.3-18.9-1.3-28.5q-0.1-3-0.1-6c-0.1-16.2-0.1-16.2 9.6-10.4z"/><path class="e" d="m209.6 120.7c-26.8 32.3-74.3 24.8-74.9-20.5q-0.1-2.8-0.1-5.8c3.3-42 92.1-6.6 75 26.3z"/><path class="f" d="m59 201q-2 1.5-4 3c-21.9 3.6-28.4-16.7-28.6-35.3 0-2.4 0-4.9-0.1-7.5 5.9-61.8 108.5-10.7 32.7 39.8z"/><path class="f" d="m90 73c-41.7 20.2-89.7 2.5-44-42 28.2-20.6 79.4 16.7 44 42z"/><path class="g" d="m331 206c-10.4 10-10.4 10-13 10q0 1 0 2c-22.7 17-33.3-5.7-24-26 1.3-3 2.6-5.9 4-9 16.5-20.7 56.6-2.3 33 23z"/><path class="h" d="m141 266c-28.3 11.3-43-13.3-20.5-32.9 33.6-22.9 41.5 7.7 20.5 32.9z"/><path class="i" d="m157 199c-20.2 4-40.3-7.8-23-28 19.9-8 43.3 11.1 23 28z"/><path class="a" d="m45 286c-23.6 0-24.8-17.5-12.1-32.7 20.3-16.5 18.6 21.8 12.1 32.7z"/><path class="j" d="m276 199c-9.5 9.5-31 6.1-31-9 15.5-16.9 40.1-22.9 31 9z"/><path class="k" d="m384 203c-11.1 0-22-4.9-22-17 11.3-11.3 22 4.9 22 17z"/></svg>